<svg width="48" height="48" viewBox="0 0 48 48" fill="none" xmlns="http://www.w3.org/2000/svg">
<path d="M27.8928 15.7937H26.3579L27.8928 14.2588V15.7937Z" fill="#F4F2F3"/>
<path d="M26.051 17.4035L26.051 17.3967C26.0548 16.9848 26.3898 16.6521 26.8026 16.6521H27.8928V21.5903H26.7885C26.3823 21.5829 26.0547 21.2531 26.051 20.8459L26.051 20.8388V17.4035Z" fill="#F4F2F3"/>
<path d="M21.8439 21.5904H20.5612L25.1034 17.0482C25.1593 17.1521 25.1914 17.2706 25.1926 17.3967L25.1926 17.4038V20.8391L25.1926 20.8459C25.1888 21.2531 24.8613 21.5829 24.4551 21.5903H21.8645C21.8576 21.5903 21.8507 21.5904 21.8439 21.5904Z" fill="#F4F2F3"/>
<path d="M24.4516 22.4488L24.4616 22.4487H26.782C26.7888 22.4488 26.7957 22.4488 26.8026 22.4488H27.8928V27.387H21.8645C21.4517 27.387 21.1166 27.0542 21.1129 26.6424L21.1129 26.6353L21.1129 23.2L21.1129 23.1933C21.1166 22.7861 21.4441 22.4562 21.8504 22.4488H24.441L24.4516 22.4488Z" fill="#F4F2F3"/>
<path d="M18.1515 24.0001L19.6816 22.47C20.0082 22.5496 20.2513 22.8429 20.2545 23.1933L20.2545 23.2003V26.1031L18.1515 24.0001Z" fill="#F4F2F3"/>
<path d="M25.1926 31.0412L22.3969 28.2456H24.441C24.8538 28.2456 25.1888 28.5783 25.1926 28.9901L25.1926 28.9972V31.0412Z" fill="#F4F2F3"/>
<path d="M26.051 28.9969L26.051 28.9901C26.0548 28.5783 26.3898 28.2456 26.8026 28.2456H27.8928V33.1837H27.3351L26.051 31.8996V28.9969Z" fill="#F4F2F3"/>
</svg>
