<svg width="48" height="48" viewBox="0 0 48 48" fill="none" xmlns="http://www.w3.org/2000/svg">
<path d="M20.1072 15.7937V14.2588L21.6421 15.7937H20.1072Z" fill="#F4F2F3"/>
<path d="M20.1072 21.5803V16.6623C20.1475 16.6556 20.1889 16.6521 20.2312 16.6521H22.5005L27.4387 21.5903H25.3839C25.377 21.5903 25.3701 21.5904 25.3633 21.5904H23.0426C23.0357 21.5904 23.0288 21.5903 23.022 21.5903H20.2171C20.1797 21.5896 20.143 21.5862 20.1072 21.5803Z" fill="#F4F2F3"/>
<path d="M20.1072 27.387V22.4487H20.2106C20.2175 22.4488 20.2243 22.4488 20.2312 22.4488H23.036C23.4446 22.4563 23.7736 22.7899 23.7736 23.2003V26.6353C23.7736 27.0505 23.4371 27.387 23.022 27.387H20.1072Z" fill="#F4F2F3"/>
<path d="M27.98 22.4487H28.2971L29.8485 24.0001L26.4617 27.387H25.3839C24.9688 27.387 24.6323 27.0505 24.6323 26.6353V23.2003C24.6323 22.7899 24.9612 22.4563 25.3698 22.4488L27.9605 22.4488L27.9711 22.4488L27.9718 22.4488L27.98 22.4487Z" fill="#F4F2F3"/>
<path d="M20.1072 33.1737V28.2557C20.1475 28.2491 20.1889 28.2456 20.2312 28.2456H25.6031L20.6649 33.1837H20.217C20.1796 33.183 20.143 33.1796 20.1072 33.1737Z" fill="#F4F2F3"/>
</svg>
