<svg width="72" height="72" viewBox="0 0 72 72" fill="none" xmlns="http://www.w3.org/2000/svg">
<path d="M15.19 14.3526H19.1754L15.9786 11.1558L14.0837 13.0506L14.0837 13.2258L14.0837 13.2363C14.0895 13.8469 14.5807 14.3415 15.19 14.3526Z" fill="#3A2111"/>
<path d="M53.1811 14.3528H52.8242L56.0212 11.1558L58.1981 13.3326C58.1448 13.8981 57.6736 14.3421 57.0967 14.3526L53.2114 14.3526L53.1811 14.3528Z" fill="#3A2111"/>
<path d="M11.6698 15.6404L11.6985 15.6402H15.1814L15.2101 15.6404H19.4183C20.0277 15.6515 20.519 16.1463 20.5246 16.757L20.5246 16.7676L20.5246 21.9206L20.5246 21.9307C20.519 22.5485 20.0164 23.0476 19.3972 23.0476H18.2248L11.1558 15.9786L11.494 15.6404H11.6688L11.6698 15.6404Z" fill="#3A2111"/>
<path d="M57.0767 15.6404L57.1054 15.6402H60.5056L60.844 15.9786L53.775 23.0476H53.2114C52.592 23.0476 52.0893 22.5481 52.084 21.93L52.084 21.9292L52.084 21.9202V16.7673L52.084 16.7585L52.084 16.7577C52.0892 16.1466 52.5807 15.6515 53.1903 15.6404H57.0757L57.0767 15.6404Z" fill="#3A2111"/>
<path d="M49.669 23.0476H44.1294L50.7456 16.4314C50.7777 16.5345 50.7955 16.6441 50.7964 16.7577L50.7964 16.7676V21.9205L50.7964 21.9301C50.7911 22.5482 50.2884 23.0476 49.669 23.0476Z" fill="#3A2111"/>
<path d="M21.8122 21.9202V16.9894L27.8704 23.0476H22.9395C22.3204 23.0476 21.8179 22.5486 21.8122 21.9308L21.8122 21.9202Z" fill="#3A2111"/>
<path d="M26.9146 31.7374L19.5124 24.3352H26.8044C27.4235 24.3352 27.9261 24.8343 27.9318 25.452L27.9318 25.4627V30.6156L27.9318 30.6259C27.9264 31.2066 27.482 31.6824 26.9146 31.7374Z" fill="#3A2111"/>
<path d="M44.355 25.4521C44.3606 24.8343 44.8632 24.3352 45.4824 24.3352H52.4874L45.1346 31.6881C44.6852 31.5425 44.3595 31.1223 44.355 30.6258L44.355 30.6152V25.4623L44.355 25.4521Z" fill="#3A2111"/>
<path d="M36.1136 31.0634L42.6164 24.5606C42.8877 24.7643 43.0638 25.0872 43.0674 25.4513L43.0674 25.4627V30.6156L43.0674 30.6258C43.0618 31.2365 42.5706 31.7313 41.9612 31.7425H38.0757C38.0702 31.7425 38.0647 31.7425 38.0592 31.7425C38.0544 31.7426 38.0497 31.7426 38.0449 31.7427H34.5637C34.5534 31.7425 34.5431 31.7425 34.5329 31.7425H30.3255C29.7164 31.7313 29.2253 31.2369 29.2193 30.6265L29.2194 30.6152V25.4623L29.2193 25.452C29.222 25.1605 29.3353 24.8955 29.5195 24.6967L35.8863 31.0634C35.9164 31.0936 35.9573 31.1105 35.9999 31.1105C36.0425 31.1105 36.0834 31.0936 36.1136 31.0634Z" fill="#3A2111"/>
<path d="M31.0634 35.8863L28.2072 33.03L30.316 33.03L30.3171 33.03L30.3457 33.0302L30.3467 33.0302H34.5539C35.1668 33.0414 35.6603 33.5418 35.6603 34.1575V39.31C35.6603 39.9327 35.1555 40.4375 34.5329 40.4375H26.7395L31.0634 36.1136C31.1262 36.0508 31.1262 35.949 31.0634 35.8863Z" fill="#3A2111"/>
<path d="M41.9697 33.03L41.9707 33.03L43.7926 33.03L40.9364 35.8863C40.8736 35.949 40.8736 36.0508 40.9364 36.1136L45.2603 40.4375H38.0757C37.4531 40.4375 36.9483 39.9327 36.9483 39.31V34.1575C36.9483 33.5418 37.4418 33.0414 38.0547 33.0302H41.94L41.9411 33.0302L41.9697 33.03Z" fill="#3A2111"/>
<path d="M18.0444 49.1326L25.4516 41.7254H26.8044C27.4235 41.7254 27.9261 42.2244 27.9318 42.8421L27.9318 42.8528V48.0058L27.9318 48.016C27.9261 48.6267 27.435 49.1214 26.8257 49.1326H22.9396C22.9339 49.1326 22.9283 49.1326 22.9227 49.1327C22.918 49.1327 22.9133 49.1328 22.9086 49.1328H19.4282C19.4179 49.1327 19.4076 49.1326 19.3972 49.1326H18.0444Z" fill="#3A2111"/>
<path d="M29.2194 42.8524L29.2193 42.8421C29.2251 42.2244 29.7276 41.7254 30.3467 41.7254H35.0973L29.2194 47.6033V42.8524Z" fill="#3A2111"/>
<path d="M43.0674 47.8902L36.9026 41.7254H41.94C42.5592 41.7254 43.0618 42.2245 43.0674 42.8422L43.0674 42.8528V47.8902Z" fill="#3A2111"/>
<path d="M44.355 42.8524L44.355 42.8422C44.3606 42.2245 44.8632 41.7254 45.4824 41.7254H46.5482L53.9554 49.1326H53.2114C53.201 49.1326 53.1907 49.1327 53.1804 49.1328H49.7C49.6897 49.1327 49.6794 49.1326 49.669 49.1326H45.4611C44.8518 49.1214 44.3606 48.6266 44.355 48.0159L44.355 48.0054V42.8524Z" fill="#3A2111"/>
<path d="M50.7964 55.6192L45.5975 50.4204H49.6902C50.2998 50.4316 50.7912 50.9267 50.7964 51.5377L50.7964 51.5476V55.6192Z" fill="#3A2111"/>
<path d="M11.1558 56.0212L16.7566 50.4204H19.4184C20.0278 50.4316 20.519 50.9263 20.5246 51.537L20.5246 51.5476V56.2981L18.9952 57.8274H15.2111L15.2101 57.8274L15.1814 57.8276H12.9621L11.1558 56.0212Z" fill="#3A2111"/>
<path d="M21.8122 51.5369C21.8178 50.9263 22.309 50.4316 22.9184 50.4204H26.4023L21.8122 55.0104V51.5472L21.8122 51.5369Z" fill="#3A2111"/>
<path d="M52.084 51.5377C52.0892 50.9267 52.5806 50.4316 53.1902 50.4204H55.2432L60.8441 56.0212L59.0377 57.8276H57.1053L57.0767 57.8274H53.1903C53.1187 57.8261 53.0489 57.8181 52.9813 57.8041L52.1074 56.9302C52.0927 56.8592 52.0846 56.7855 52.084 56.71L52.084 56.7092L52.084 56.7002V51.5472L52.084 51.5385L52.084 51.5377Z" fill="#3A2111"/>
<path d="M14.5011 59.3665C14.6899 59.2132 14.9291 59.1199 15.19 59.1151H17.7075L15.9786 60.8441L14.5011 59.3665Z" fill="#3A2111"/>
<path d="M56.0212 60.8441L54.2923 59.1151H57.0967C57.2839 59.1186 57.4597 59.1675 57.6139 59.2514L56.0212 60.8441Z" fill="#3A2111"/>
</svg>
