<svg width="72" height="72" viewBox="0 0 72 72" fill="none" xmlns="http://www.w3.org/2000/svg">
<path d="M41.8393 23.6906H39.5369L41.8393 21.3882V23.6906Z" fill="#3A2111"/>
<path d="M39.0766 26.1053L39.0765 26.095C39.0822 25.4773 39.5848 24.9782 40.2039 24.9782H41.8393V32.3855H40.1828C39.5735 32.3743 39.0822 31.8796 39.0765 31.2689L39.0766 31.2582V26.1053Z" fill="#3A2111"/>
<path d="M32.7659 32.3857H30.8418L37.6552 25.5723C37.739 25.7281 37.7872 25.9059 37.789 26.095L37.7889 26.1057V31.2586L37.789 31.2689C37.7833 31.8796 37.2921 32.3743 36.6827 32.3855H32.7967C32.7864 32.3855 32.7761 32.3855 32.7659 32.3857Z" fill="#3A2111"/>
<path d="M36.6775 33.6732L36.6925 33.673H40.173C40.1833 33.6731 40.1936 33.6732 40.2039 33.6732H41.8393V41.0805H32.7967C32.1776 41.0805 31.675 40.5814 31.6694 39.9636L31.6694 39.953L31.6694 34.8001L31.6694 34.7899C31.6749 34.1791 32.1662 33.6844 32.7756 33.6732H36.6616L36.6775 33.6732Z" fill="#3A2111"/>
<path d="M27.2273 36.0002L29.5225 33.705C30.0124 33.8245 30.377 34.2643 30.3818 34.7899L30.3818 34.8004V39.1547L27.2273 36.0002Z" fill="#3A2111"/>
<path d="M37.7889 46.5618L33.5955 42.3684H36.6616C37.2807 42.3684 37.7833 42.8674 37.789 43.4851L37.7889 43.4958V46.5618Z" fill="#3A2111"/>
<path d="M39.0766 43.4954L39.0765 43.4851C39.0822 42.8674 39.5848 42.3684 40.2039 42.3684H41.8393V49.7756H41.0027L39.0766 47.8494V43.4954Z" fill="#3A2111"/>
</svg>
